<svg xmlns="http://www.w3.org/2000/svg" width="44mm" height="92mm" viewBox="0 0 44 92"><path d="M 37.4097,87.4596 L 37.6828,87.4327 L 38.0768,87.3132 L 38.3394,87.2336 L 38.7025,87.0395 L 38.9445,86.9101 L 39.2627,86.6490 L 39.4749,86.4749 L 39.7360,86.1566 L 39.9101,85.9445 L 40.1042,85.5814 L 40.2336,85.3394 L 40.3531,84.9454 L 40.4327,84.6828 L 40.4731,84.2731 L 40.5000,84.0000 L 40.5000,38.4000 L 40.5000,8.0000 L 40.4596,7.5903 L 40.4327,7.3172 L 40.3132,6.9232 L 40.2336,6.6606 L 40.0395,6.2975 L 39.9101,6.0555 L 39.6490,5.7373 L 39.4749,5.5251 L 39.1566,5.2640 L 38.9445,5.0899 L 38.5814,4.8958 L 38.3394,4.7664 L 37.9454,4.6469 L 37.6828,4.5673 L 37.2731,4.5269 L 37.0000,4.5000 L 19.0000,4.5000 L 7.0000,4.5000 L 6.5903,4.5404 L 6.3172,4.5673 L 5.9232,4.6868 L 5.6606,4.7664 L 5.2975,4.9605 L 5.0555,5.0899 L 4.7373,5.3510 L 4.5251,5.5251 L 4.2640,5.8434 L 4.0899,6.0555 L 3.8958,6.4186 L 3.7664,6.6606 L 3.6469,7.0546 L 3.5673,7.3172 L 3.5269,7.7269 L 3.5000,8.0000 L 3.5000,53.6000 L 3.5000,84.0000 L 3.5404,84.4097 L 3.5673,84.6828 L 3.6868,85.0768 L 3.7664,85.3394 L 3.9605,85.7025 L 4.0899,85.9445 L 4.3510,86.2627 L 4.5251,86.4749 L 4.8434,86.7360 L 5.0555,86.9101 L 5.4186,87.1042 L 5.6606,87.2336 L 6.0546,87.3531 L 6.3172,87.4327 L 6.7269,87.4731 L 7.0000,87.5000 L 25.0000,87.5000 L 37.0000,87.5000 Z M 9.7859,41.0860 L 9.4648,41.0649 L 9.2544,41.0231 L 8.9388,40.9603 L 8.7357,40.8913 L 8.4310,40.7879 L 8.2386,40.6930 L 7.9500,40.5507 L 7.7716,40.4315 L 7.5041,40.2527 L 7.3428,40.1113 L 7.1009,39.8991 L 6.9594,39.7379 L 6.7473,39.4959 L 6.6281,39.3176 L 6.4493,39.0500 L 6.3544,38.8576 L 6.2121,38.5690 L 6.1431,38.3659 L 6.0397,38.0612 L 5.9979,37.8508 L 5.9351,37.5352 L 5.9210,37.3211 L 5.9000,37.0000 L 5.9140,36.7859 L 5.9351,36.4648 L 5.9769,36.2544 L 6.0397,35.9388 L 6.1087,35.7357 L 6.2121,35.4310 L 6.3070,35.2386 L 6.4493,34.9500 L 6.5685,34.7716 L 6.7473,34.5041 L 6.8887,34.3428 L 7.1009,34.1009 L 7.2621,33.9594 L 7.5041,33.7473 L 7.6824,33.6281 L 7.9500,33.4493 L 8.1424,33.3544 L 8.4310,33.2121 L 8.6341,33.1431 L 8.9388,33.0397 L 9.1492,32.9979 L 9.4648,32.9351 L 9.6789,32.9210 L 10.0000,32.9000 L 10.2141,32.9140 L 10.5352,32.9351 L 10.7456,32.9769 L 11.0612,33.0397 L 11.2643,33.1087 L 11.5690,33.2121 L 11.7614,33.3070 L 12.0500,33.4493 L 12.2284,33.5685 L 12.4959,33.7473 L 12.6572,33.8887 L 12.8991,34.1009 L 13.0406,34.2621 L 13.2527,34.5041 L 13.3719,34.6824 L 13.5507,34.9500 L 13.6456,35.1424 L 13.7879,35.4310 L 13.8569,35.6341 L 13.9603,35.9388 L 14.0021,36.1492 L 14.0649,36.4648 L 14.0790,36.6789 L 14.1000,37.0000 L 14.0860,37.2141 L 14.0649,37.5352 L 14.0231,37.7456 L 13.9603,38.0612 L 13.8913,38.2643 L 13.7879,38.5690 L 13.6930,38.7614 L 13.5507,39.0500 L 13.4315,39.2284 L 13.2527,39.4959 L 13.1113,39.6572 L 12.8991,39.8991 L 12.7379,40.0406 L 12.4959,40.2527 L 12.3176,40.3719 L 12.0500,40.5507 L 11.8576,40.6456 L 11.5690,40.7879 L 11.3659,40.8569 L 11.0612,40.9603 L 10.8508,41.0021 L 10.5352,41.0649 L 10.3211,41.0790 L 10.0000,41.1000 Z M 33.7859,41.0860 L 33.4648,41.0649 L 33.2544,41.0231 L 32.9388,40.9603 L 32.7357,40.8913 L 32.4310,40.7879 L 32.2386,40.6930 L 31.9500,40.5507 L 31.7716,40.4315 L 31.5041,40.2527 L 31.3428,40.1113 L 31.1009,39.8991 L 30.9594,39.7379 L 30.7473,39.4959 L 30.6281,39.3176 L 30.4493,39.0500 L 30.3544,38.8576 L 30.2121,38.5690 L 30.1431,38.3659 L 30.0397,38.0612 L 29.9979,37.8508 L 29.9351,37.5352 L 29.9210,37.3211 L 29.9000,37.0000 L 29.9140,36.7859 L 29.9351,36.4648 L 29.9769,36.2544 L 30.0397,35.9388 L 30.1087,35.7357 L 30.2121,35.4310 L 30.3070,35.2386 L 30.4493,34.9500 L 30.5685,34.7716 L 30.7473,34.5041 L 30.8887,34.3428 L 31.1009,34.1009 L 31.2621,33.9594 L 31.5041,33.7473 L 31.6824,33.6281 L 31.9500,33.4493 L 32.1424,33.3544 L 32.4310,33.2121 L 32.6341,33.1431 L 32.9388,33.0397 L 33.1492,32.9979 L 33.4648,32.9351 L 33.6789,32.9210 L 34.0000,32.9000 L 34.2141,32.9140 L 34.5352,32.9351 L 34.7456,32.9769 L 35.0612,33.0397 L 35.2643,33.1087 L 35.5690,33.2121 L 35.7614,33.3070 L 36.0500,33.4493 L 36.2284,33.5685 L 36.4959,33.7473 L 36.6572,33.8887 L 36.8991,34.1009 L 37.0406,34.2621 L 37.2527,34.5041 L 37.3719,34.6824 L 37.5507,34.9500 L 37.6456,35.1424 L 37.7879,35.4310 L 37.8569,35.6341 L 37.9603,35.9388 L 38.0021,36.1492 L 38.0649,36.4648 L 38.0790,36.6789 L 38.1000,37.0000 L 38.0860,37.2141 L 38.0649,37.5352 L 38.0231,37.7456 L 37.9603,38.0612 L 37.8913,38.2643 L 37.7879,38.5690 L 37.6930,38.7614 L 37.5507,39.0500 L 37.4315,39.2284 L 37.2527,39.4959 L 37.1113,39.6572 L 36.8991,39.8991 L 36.7379,40.0406 L 36.4959,40.2527 L 36.3176,40.3719 L 36.0500,40.5507 L 35.8576,40.6456 L 35.5690,40.7879 L 35.3659,40.8569 L 35.0612,40.9603 L 34.8508,41.0021 L 34.5352,41.0649 L 34.3211,41.0790 L 34.0000,41.1000 Z M 9.7859,59.0860 L 9.4648,59.0649 L 9.2544,59.0231 L 8.9388,58.9603 L 8.7357,58.8913 L 8.4310,58.7879 L 8.2386,58.6930 L 7.9500,58.5507 L 7.7716,58.4315 L 7.5041,58.2527 L 7.3428,58.1113 L 7.1009,57.8991 L 6.9594,57.7379 L 6.7473,57.4959 L 6.6281,57.3176 L 6.4493,57.0500 L 6.3544,56.8576 L 6.2121,56.5690 L 6.1431,56.3659 L 6.0397,56.0612 L 5.9979,55.8508 L 5.9351,55.5352 L 5.9210,55.3211 L 5.9000,55.0000 L 5.9140,54.7859 L 5.9351,54.4648 L 5.9769,54.2544 L 6.0397,53.9388 L 6.1087,53.7357 L 6.2121,53.4310 L 6.3070,53.2386 L 6.4493,52.9500 L 6.5685,52.7716 L 6.7473,52.5041 L 6.8887,52.3428 L 7.1009,52.1009 L 7.2621,51.9594 L 7.5041,51.7473 L 7.6824,51.6281 L 7.9500,51.4493 L 8.1424,51.3544 L 8.4310,51.2121 L 8.6341,51.1431 L 8.9388,51.0397 L 9.1492,50.9979 L 9.4648,50.9351 L 9.6789,50.9210 L 10.0000,50.9000 L 10.2141,50.9140 L 10.5352,50.9351 L 10.7456,50.9769 L 11.0612,51.0397 L 11.2643,51.1087 L 11.5690,51.2121 L 11.7614,51.3070 L 12.0500,51.4493 L 12.2284,51.5685 L 12.4959,51.7473 L 12.6572,51.8887 L 12.8991,52.1009 L 13.0406,52.2621 L 13.2527,52.5041 L 13.3719,52.6824 L 13.5507,52.9500 L 13.6456,53.1424 L 13.7879,53.4310 L 13.8569,53.6341 L 13.9603,53.9388 L 14.0021,54.1492 L 14.0649,54.4648 L 14.0790,54.6789 L 14.1000,55.0000 L 14.0860,55.2141 L 14.0649,55.5352 L 14.0231,55.7456 L 13.9603,56.0612 L 13.8913,56.2643 L 13.7879,56.5690 L 13.6930,56.7614 L 13.5507,57.0500 L 13.4315,57.2284 L 13.2527,57.4959 L 13.1113,57.6572 L 12.8991,57.8991 L 12.7379,58.0406 L 12.4959,58.2527 L 12.3176,58.3719 L 12.0500,58.5507 L 11.8576,58.6456 L 11.5690,58.7879 L 11.3659,58.8569 L 11.0612,58.9603 L 10.8508,59.0021 L 10.5352,59.0649 L 10.3211,59.0790 L 10.0000,59.1000 Z M 33.7859,59.0860 L 33.4648,59.0649 L 33.2544,59.0231 L 32.9388,58.9603 L 32.7357,58.8913 L 32.4310,58.7879 L 32.2386,58.6930 L 31.9500,58.5507 L 31.7716,58.4315 L 31.5041,58.2527 L 31.3428,58.1113 L 31.1009,57.8991 L 30.9594,57.7379 L 30.7473,57.4959 L 30.6281,57.3176 L 30.4493,57.0500 L 30.3544,56.8576 L 30.2121,56.5690 L 30.1431,56.3659 L 30.0397,56.0612 L 29.9979,55.8508 L 29.9351,55.5352 L 29.9210,55.3211 L 29.9000,55.0000 L 29.9140,54.7859 L 29.9351,54.4648 L 29.9769,54.2544 L 30.0397,53.9388 L 30.1087,53.7357 L 30.2121,53.4310 L 30.3070,53.2386 L 30.4493,52.9500 L 30.5685,52.7716 L 30.7473,52.5041 L 30.8887,52.3428 L 31.1009,52.1009 L 31.2621,51.9594 L 31.5041,51.7473 L 31.6824,51.6281 L 31.9500,51.4493 L 32.1424,51.3544 L 32.4310,51.2121 L 32.6341,51.1431 L 32.9388,51.0397 L 33.1492,50.9979 L 33.4648,50.9351 L 33.6789,50.9210 L 34.0000,50.9000 L 34.2141,50.9140 L 34.5352,50.9351 L 34.7456,50.9769 L 35.0612,51.0397 L 35.2643,51.1087 L 35.5690,51.2121 L 35.7614,51.3070 L 36.0500,51.4493 L 36.2284,51.5685 L 36.4959,51.7473 L 36.6572,51.8887 L 36.8991,52.1009 L 37.0406,52.2621 L 37.2527,52.5041 L 37.3719,52.6824 L 37.5507,52.9500 L 37.6456,53.1424 L 37.7879,53.4310 L 37.8569,53.6341 L 37.9603,53.9388 L 38.0021,54.1492 L 38.0649,54.4648 L 38.0790,54.6789 L 38.1000,55.0000 L 38.0860,55.2141 L 38.0649,55.5352 L 38.0231,55.7456 L 37.9603,56.0612 L 37.8913,56.2643 L 37.7879,56.5690 L 37.6930,56.7614 L 37.5507,57.0500 L 37.4315,57.2284 L 37.2527,57.4959 L 37.1113,57.6572 L 36.8991,57.8991 L 36.7379,58.0406 L 36.4959,58.2527 L 36.3176,58.3719 L 36.0500,58.5507 L 35.8576,58.6456 L 35.5690,58.7879 L 35.3659,58.8569 L 35.0612,58.9603 L 34.8508,59.0021 L 34.5352,59.0649 L 34.3211,59.0790 L 34.0000,59.1000 Z" fill="none" stroke="black" stroke-width="0.15"/></svg>
